<svg width="80" height="80" fill="none" xmlns="http://www.w3.org/2000/svg"><g filter="url(#filter0_d)"><rect x="15.762" y="5" width="48.715" height="48.715" rx="24.357" fill="url(#paint0_linear)"/><g clip-path="url(#clip0)"><path d="M49.158 18.726H30.606a.806.806 0 00-.806.807v18.552c0 .446.36.807.806.807h18.552c.447 0 .807-.36.807-.807V19.533a.806.806 0 00-.807-.807zm-2.329 5.886h-1.61c-1.263 0-1.508.6-1.508 1.482v1.944h3.015l-.393 3.042H43.71v7.812h-3.143v-7.81H37.94v-3.044h2.63v-2.244c0-2.604 1.59-4.023 3.914-4.023 1.114 0 2.07.084 2.349.121v2.72h-.003z" fill="#fff"/></g><rect x="16.5" y="5.738" width="47.239" height="47.239" rx="23.619" stroke="url(#paint1_linear)" stroke-width="1.476"/></g><defs><linearGradient id="paint0_linear" x1="16.608" y1="53.715" x2="51.215" y2="12.427" gradientUnits="userSpaceOnUse"><stop stop-color="#00F3B9"/><stop offset="1" stop-color="#2187FF"/></linearGradient><linearGradient id="paint1_linear" x1="16.608" y1="53.715" x2="51.215" y2="12.427" gradientUnits="userSpaceOnUse"><stop stop-color="#00F3B9"/><stop offset="1" stop-color="#2187FF"/></linearGradient><clipPath id="clip0"><path fill="#fff" transform="translate(29.77 18.636)" d="M0 0h20.221v20.767H0z"/></clipPath><filter id="filter0_d" x=".522" y=".187" width="79.194" height="79.194" filterUnits="userSpaceOnUse" color-interpolation-filters="sRGB"><feFlood flood-opacity="0" result="BackgroundImageFix"/><feColorMatrix in="SourceAlpha" values="0 0 0 0 0 0 0 0 0 0 0 0 0 0 0 0 0 0 127 0"/><feOffset dy="10.427"/><feGaussianBlur stdDeviation="7.62"/><feColorMatrix values="0 0 0 0 0 0 0 0 0 0 0 0 0 0 0 0 0 0 0.07 0"/><feBlend in2="BackgroundImageFix" result="effect1_dropShadow"/><feBlend in="SourceGraphic" in2="effect1_dropShadow" result="shape"/></filter></defs></svg>