<svg width="80" height="80" fill="none" xmlns="http://www.w3.org/2000/svg"><g filter="url(#filter0_d)"><rect x="15.524" y="5" width="48.715" height="48.715" rx="24.357" fill="#fff"/><g clip-path="url(#clip0)"><path d="M49.13 19.526H31.18a.78.78 0 00-.78.78v17.95c0 .43.348.78.78.78h17.95a.78.78 0 00.78-.78v-17.95a.78.78 0 00-.78-.78zM36.186 36.15h-2.895v-9.312h2.895v9.312zM34.74 25.566a1.678 1.678 0 110-3.356 1.678 1.678 0 010 3.356zm12.284 10.585h-2.893v-4.53c0-1.08-.02-2.467-1.504-2.467-1.505 0-1.737 1.175-1.737 2.39v4.607H38v-9.312h2.776v1.274h.039c.385-.732 1.329-1.505 2.738-1.505 2.932 0 3.47 1.929 3.47 4.436v5.107z" fill="#2091F9"/></g><rect x="16.262" y="5.738" width="47.239" height="47.239" rx="23.619" stroke="url(#paint0_linear)" stroke-width="1.476"/></g><defs><linearGradient id="paint0_linear" x1="16.37" y1="53.715" x2="50.977" y2="12.427" gradientUnits="userSpaceOnUse"><stop stop-color="#00F3B9"/><stop offset="1" stop-color="#2187FF"/></linearGradient><clipPath id="clip0"><path fill="#fff" transform="translate(29.904 19.438)" d="M0 0h20.093v20.093H0z"/></clipPath><filter id="filter0_d" x=".284" y=".187" width="79.194" height="79.194" filterUnits="userSpaceOnUse" color-interpolation-filters="sRGB"><feFlood flood-opacity="0" result="BackgroundImageFix"/><feColorMatrix in="SourceAlpha" values="0 0 0 0 0 0 0 0 0 0 0 0 0 0 0 0 0 0 127 0"/><feOffset dy="10.427"/><feGaussianBlur stdDeviation="7.62"/><feColorMatrix values="0 0 0 0 0 0 0 0 0 0 0 0 0 0 0 0 0 0 0.07 0"/><feBlend in2="BackgroundImageFix" result="effect1_dropShadow"/><feBlend in="SourceGraphic" in2="effect1_dropShadow" result="shape"/></filter></defs></svg>