<svg width="15" height="15" fill="none" xmlns="http://www.w3.org/2000/svg"><path d="M3.325 9.384l-1.08 4.678a.723.723 0 001.108.766l3.948-2.631 3.948 2.631a.726.726 0 001.1-.802l-1.326-4.64 3.288-2.96a.725.725 0 00-.428-1.26l-4.133-.33L7.962.877a.724.724 0 00-1.321 0l-1.789 3.96-4.133.328A.725.725 0 00.27 6.407l3.055 2.977zm2.069-3.136a.723.723 0 00.603-.425L7.3 2.937l1.304 2.886a.724.724 0 00.604.425l2.88.228-2.372 2.135a.726.726 0 00-.213.738l.909 3.179-2.709-1.806a.721.721 0 00-.804 0l-2.83 1.887.761-3.296a.725.725 0 00-.2-.681L2.428 6.484l2.966-.236z" fill="#F3CD03"/></svg>