<svg width="80" height="80" fill="none" xmlns="http://www.w3.org/2000/svg"><g filter="url(#filter0_d)"><rect x="16" y="5" width="48.715" height="48.715" rx="24.357" fill="#fff"/><g clip-path="url(#clip0)"><path d="M50.389 22.96a8.105 8.105 0 01-2.329.626 4.033 4.033 0 001.779-2.23 7.984 7.984 0 01-2.566.977 4.034 4.034 0 00-2.955-1.278 4.043 4.043 0 00-4.043 4.046c0 .313.037.626.1.927a11.492 11.492 0 01-8.339-4.233 4.014 4.014 0 00-.55 2.042c0 1.404.714 2.642 1.802 3.37a4.08 4.08 0 01-1.828-.515v.05a4.045 4.045 0 003.242 3.97c-.348.09-.706.137-1.065.137-.264 0-.513-.026-.764-.061a4.051 4.051 0 003.78 2.805 8.105 8.105 0 01-5.02 1.73c-.34 0-.652-.013-.977-.05a11.451 11.451 0 006.21 1.813c7.438 0 11.507-6.16 11.507-11.508 0-.176 0-.351-.012-.527a8.71 8.71 0 002.028-2.091z" fill="#2091F9"/></g><rect x="16.738" y="5.738" width="47.239" height="47.239" rx="23.619" stroke="url(#paint0_linear)" stroke-width="1.476"/></g><defs><linearGradient id="paint0_linear" x1="16.846" y1="53.715" x2="51.453" y2="12.427" gradientUnits="userSpaceOnUse"><stop stop-color="#00F3B9"/><stop offset="1" stop-color="#2187FF"/></linearGradient><clipPath id="clip0"><path fill="#fff" transform="translate(30.438 21.042)" d="M0 0h20.052v16.453H0z"/></clipPath><filter id="filter0_d" x=".76" y=".187" width="79.194" height="79.194" filterUnits="userSpaceOnUse" color-interpolation-filters="sRGB"><feFlood flood-opacity="0" result="BackgroundImageFix"/><feColorMatrix in="SourceAlpha" values="0 0 0 0 0 0 0 0 0 0 0 0 0 0 0 0 0 0 127 0"/><feOffset dy="10.427"/><feGaussianBlur stdDeviation="7.62"/><feColorMatrix values="0 0 0 0 0 0 0 0 0 0 0 0 0 0 0 0 0 0 0.07 0"/><feBlend in2="BackgroundImageFix" result="effect1_dropShadow"/><feBlend in="SourceGraphic" in2="effect1_dropShadow" result="shape"/></filter></defs></svg>