<svg width="23" height="22" fill="none" xmlns="http://www.w3.org/2000/svg"><path d="M9.26 20.35c0 .645-.509 1.15-1.116 1.15-.608 0-1.118-.505-1.118-1.15 0-.645.51-1.15 1.118-1.15.607 0 1.117.505 1.117 1.15zm9.826 0c0 .645-.51 1.15-1.117 1.15-.608 0-1.117-.505-1.117-1.15 0-.645.51-1.15 1.117-1.15s1.117.505 1.117 1.15zm2.861-17.567l.008.01a.24.24 0 01.052.2l-2.277 10.26h0a.235.235 0 01-.082.134.21.21 0 01-.136.047h0H8.219l-.14.118-1.732 1.466-.07.06-.044.08a1 1 0 00.341 1.329c.145.09.31.14.48.146h12.13c.055 0 .11.023.151.065a.241.241 0 01.068.169.241.241 0 01-.068.168.212.212 0 01-.15.065H7.161a1.442 1.442 0 01-.666-.126l-.206.456.206-.456a1.48 1.48 0 01-.54-.417 1.477 1.477 0 01.035-1.84l.062-.064 1.16-.966.256-.214-.099-.318L4.071 2.52l-.078-.25-.25-.079-2.58-.806s0 0 0 0a.225.225 0 01-.132-.113.25.25 0 01-.017-.186.233.233 0 01.111-.14.211.211 0 01.163-.015s0 0 0 0l2.947.924h0c.033.01.064.029.09.054a.236.236 0 01.057.096l3.284 10.609.109.352h11.552l.086-.394 1.92-8.8.131-.606H7.654l-.15-.467h14.279c.03 0 .06.008.088.021l.22-.449-.22.45a.221.221 0 01.076.06h0z" fill="#BDBDBD" stroke="#252B42"/></svg>