<svg width="22" height="17" fill="none" xmlns="http://www.w3.org/2000/svg"><path d="M4.636 12.938h-.001a.249.249 0 00-.08-.056l.196-.46-.197.46a.231.231 0 00-.182 0l-.196-.46.196.46a.249.249 0 00-.08.056h0l-1.72 1.772-.36.372-.359-.373-.217-.226s0 0 0 0a.24.24 0 00-.173-.075.24.24 0 00-.172.075.286.286 0 00-.079.2c0 .076.03.148.08.198l.75.773h0a.25.25 0 00.08.056s0 0 0 0l-.196.46a.73.73 0 00.575 0l2.135-3.232zm0 0a.274.274 0 01.057.09l.464-.187-.521.097zM4.635.575h0a.274.274 0 01.058.09h0a.293.293 0 010 .219h0a.274.274 0 01-.057.089h0l-2.25 2.318h-.001a.249.249 0 01-.08.056.231.231 0 01-.183 0l-.196.46.196-.46a.25.25 0 01-.08-.056h0l-.75-.773-.347.337.346-.337a.294.294 0 010-.398l-.359-.348.36.349a.25.25 0 01.08-.056.232.232 0 01.263.055s0 0 0 0l.218.227.36.372.36-.371L4.29.575h0a.249.249 0 01.081-.056.23.23 0 01.263.056zm0 6.181v.001a.275.275 0 01.058.09l.464-.188-.464.187a.293.293 0 010 .219l.464.187-.464-.187a.274.274 0 01-.057.089h0l-2.25 2.318h-.001a.249.249 0 01-.08.057.23.23 0 01-.263-.056h0l-.75-.773a.286.286 0 01-.08-.2c0-.076.03-.148.08-.198l-.36-.348.36.348a.24.24 0 01.171-.075.24.24 0 01.172.075s0 0 0 0l.218.226.36.372.36-.371L4.29 6.757h0a.249.249 0 01.081-.057l-.196-.46.196.46a.23.23 0 01.182 0l.197-.46-.197.46c.03.013.057.032.08.056zm2.578 7.926c0-.077.03-.148.079-.198a.24.24 0 01.171-.075h13.5a.24.24 0 01.171.075c.049.05.078.121.078.198 0 .077-.03.148-.078.198a.24.24 0 01-.172.075H7.463a.239.239 0 01-.171-.075.285.285 0 01-.079-.198zm0-6.181c0-.077.03-.148.079-.198a.24.24 0 01.171-.075h13.5a.24.24 0 01.171.075.28.28 0 01.078.198c0 .077-.03.148-.078.198a.24.24 0 01-.172.074H7.463a.24.24 0 01-.171-.074.285.285 0 01-.079-.198zm0-6.181c0-.078.03-.149.079-.199a.24.24 0 01.171-.074h13.5a.24.24 0 01.171.074c.049.05.078.121.078.199 0 .077-.03.148-.078.198a.24.24 0 01-.172.074H7.463a.24.24 0 01-.171-.074.285.285 0 01-.079-.198z" fill="#252B42" stroke="#252B42"/></svg>