<svg width="20" height="22" fill="none" xmlns="http://www.w3.org/2000/svg"><path fill-rule="evenodd" clip-rule="evenodd" d="M13.052 14.205c.116-.122.254-.219.406-.285a1.2 1.2 0 011.363.285l4.812 5.053c.235.246.367.58.367.928 0 .349-.132.683-.366.929a1.22 1.22 0 01-.884.385 1.22 1.22 0 01-.884-.385l-4.813-5.053a1.318 1.318 0 01-.271-.426 1.37 1.37 0 01.271-1.43h-.001z" fill="#BDBDBD"/><path fill-rule="evenodd" clip-rule="evenodd" d="M8.125 16.25a6.58 6.58 0 002.63-.55 6.863 6.863 0 002.231-1.564 7.252 7.252 0 001.49-2.342A7.533 7.533 0 0015 9.03c0-.948-.178-1.886-.523-2.762a7.253 7.253 0 00-1.49-2.342 6.863 6.863 0 00-2.231-1.565 6.592 6.592 0 00-2.631-.55c-1.823 0-3.572.761-4.861 2.115C1.974 5.28 1.25 7.117 1.25 9.03c0 1.915.724 3.75 2.014 5.105 1.289 1.354 3.038 2.114 4.861 2.114zm8.125-7.219c0 2.263-.856 4.433-2.38 6.033-1.523 1.6-3.59 2.498-5.745 2.498-2.155 0-4.222-.898-5.745-2.498C.856 13.464 0 11.294 0 9.03 0 6.77.856 4.6 2.38 3 3.903 1.399 5.97.5 8.125.5c2.155 0 4.222.899 5.745 2.499 1.524 1.6 2.38 3.77 2.38 6.032z" fill="#BDBDBD"/></svg>