<svg width="35" height="29" viewBox="0 0 35 29" fill="none" xmlns="http://www.w3.org/2000/svg">
<path d="M34.1445 4.1787C32.9197 4.70704 31.5868 5.08729 30.2139 5.23539C31.6393 4.38858 32.7067 3.05077 33.2159 1.47295C31.8783 2.26862 30.4131 2.82656 28.8851 3.12202C28.2464 2.43928 27.474 1.89538 26.616 1.52421C25.758 1.15304 24.8327 0.962551 23.8978 0.964616C20.1154 0.964616 17.0734 4.03061 17.0734 7.79305C17.0734 8.32139 17.1374 8.84973 17.2415 9.35806C11.5778 9.06187 6.52656 6.35611 3.16838 2.21343C2.55648 3.25857 2.23583 4.44858 2.23978 5.65966C2.23978 8.0292 3.44456 10.1186 5.28175 11.3474C4.19906 11.3047 3.14173 11.0071 2.19575 10.4788V10.5628C2.19575 13.881 4.54127 16.6308 7.6673 17.2632C7.08035 17.4157 6.47655 17.4936 5.87013 17.4953C5.42584 17.4953 5.00557 17.4513 4.5813 17.3913C5.44586 20.097 7.96349 22.0623 10.9614 22.1263C8.61591 23.9635 5.67801 25.0442 2.48794 25.0442C1.91557 25.0442 1.38722 25.0242 0.838867 24.9602C3.86483 26.9014 7.45516 28.0222 11.3217 28.0222C23.8738 28.0222 30.7423 17.6234 30.7423 8.59757C30.7423 8.30138 30.7423 8.00518 30.7223 7.70899C32.0511 6.73636 33.2159 5.53158 34.1445 4.1787Z" fill="white"/>
</svg>
