<svg width="33" height="33" viewBox="0 0 33 33" fill="none" xmlns="http://www.w3.org/2000/svg">
<path d="M31.1989 0.48291H1.73982C1.03136 0.48291 0.458984 1.05528 0.458984 1.76374V31.2229C0.458984 31.9313 1.03136 32.5037 1.73982 32.5037H31.1989C31.9074 32.5037 32.4798 31.9313 32.4798 31.2229V1.76374C32.4798 1.05528 31.9074 0.48291 31.1989 0.48291ZM9.95715 27.7686H5.20606V12.4867H9.95715V27.7686ZM7.58361 10.3973C7.03896 10.3973 6.50654 10.2358 6.05369 9.93325C5.60083 9.63066 5.24787 9.20057 5.03944 8.69738C4.83101 8.1942 4.77648 7.6405 4.88273 7.10632C4.98899 6.57214 5.25126 6.08146 5.63639 5.69634C6.02151 5.31121 6.51219 5.04894 7.04637 4.94268C7.58055 4.83643 8.13425 4.89096 8.63744 5.09939C9.14062 5.30782 9.57071 5.66078 9.8733 6.11363C10.1759 6.56649 10.3374 7.09891 10.3374 7.64356C10.3334 9.16454 9.10059 10.3973 7.58361 10.3973ZM27.7447 27.7686H22.9976V20.3358C22.9976 18.5626 22.9656 16.2852 20.528 16.2852C18.0584 16.2852 17.6782 18.2144 17.6782 20.2077V27.7686H12.9351V12.4867H17.49V14.5761H17.5541C18.1865 13.3753 19.7355 12.1065 22.049 12.1065C26.8601 12.1065 27.7447 15.2725 27.7447 19.3872V27.7686Z" fill="white"/>
</svg>
