<svg width="33" height="33" viewBox="0 0 33 33" fill="none" xmlns="http://www.w3.org/2000/svg">
<path d="M31.2097 0.48291H1.75056C1.0421 0.48291 0.469727 1.05528 0.469727 1.76374V31.2229C0.469727 31.9313 1.0421 32.5037 1.75056 32.5037H31.2097C31.9181 32.5037 32.4905 31.9313 32.4905 31.2229V1.76374C32.4905 1.05528 31.9181 0.48291 31.2097 0.48291ZM27.5113 9.82897H24.9536C22.9483 9.82897 22.5601 10.7816 22.5601 12.1825V15.2685H27.3472L26.7228 20.0996H22.5601V32.5037H17.5688V20.1036H13.3941V15.2685H17.5688V11.7062C17.5688 7.57151 20.0945 5.31805 23.7849 5.31805C25.554 5.31805 27.071 5.45013 27.5153 5.51017V9.82897H27.5113Z" fill="white"/>
</svg>
