<svg width="9" height="15" viewBox="0 0 9 15"  xmlns="http://www.w3.org/2000/svg">
<path d="M8.25847 13.9192C8.37125 13.8067 8.46073 13.673 8.52178 13.5258C8.58283 13.3786 8.61426 13.2208 8.61426 13.0615C8.61426 12.9022 8.58283 12.7444 8.52178 12.5972C8.46073 12.45 8.37125 12.3163 8.25847 12.2038L3.53801 7.48333L8.25847 2.76288C8.48595 2.5354 8.61374 2.22687 8.61374 1.90517C8.61374 1.58346 8.48595 1.27493 8.25847 1.04745C8.03099 0.819972 7.72246 0.692178 7.40075 0.692178C7.07905 0.692178 6.77052 0.819972 6.54304 1.04745L0.958789 6.63171C0.846005 6.74426 0.756526 6.87795 0.695475 7.02513C0.634423 7.17231 0.602999 7.33008 0.602999 7.48942C0.602999 7.64876 0.634423 7.80653 0.695475 7.95371C0.756526 8.10088 0.846005 8.23458 0.958789 8.34713L6.54304 13.9314C7.00536 14.3937 7.78399 14.3937 8.25847 13.9192Z" fill="white"/>
</svg>
