<svg width="12" height="9" viewBox="0 0 12 9" fill="none" xmlns="http://www.w3.org/2000/svg">
<path fill-rule="evenodd" clip-rule="evenodd" d="M11.8537 0.646009C11.9002 0.692454 11.9372 0.74763 11.9624 0.808375C11.9876 0.86912 12.0005 0.934242 12.0005 1.00001C12.0005 1.06578 11.9876 1.1309 11.9624 1.19164C11.9372 1.25239 11.9002 1.30756 11.8537 1.35401L4.85365 8.35401C4.80721 8.40057 4.75203 8.43751 4.69129 8.46272C4.63054 8.48793 4.56542 8.5009 4.49965 8.5009C4.43389 8.5009 4.36877 8.48793 4.30802 8.46272C4.24728 8.43751 4.1921 8.40057 4.14565 8.35401L0.645655 4.85401C0.551768 4.76012 0.499023 4.63278 0.499023 4.50001C0.499023 4.36723 0.551768 4.2399 0.645655 4.14601C0.739542 4.05212 0.866879 3.99938 0.999655 3.99938C1.13243 3.99938 1.25977 4.05212 1.35366 4.14601L4.49965 7.29301L11.1457 0.646009C11.1921 0.599445 11.2473 0.562503 11.308 0.537296C11.3688 0.51209 11.4339 0.499115 11.4997 0.499115C11.5654 0.499115 11.6305 0.51209 11.6913 0.537296C11.752 0.562503 11.8072 0.599445 11.8537 0.646009Z" fill="white"/>
</svg>
