<svg width="30" height="25" viewBox="0 0 30 25" fill="none" xmlns="http://www.w3.org/2000/svg">
<path d="M21.4499 1.5C22.2444 1.49941 23.0309 1.65738 23.7635 1.96466C24.4962 2.27195 25.1601 2.72236 25.7164 3.28952C26.8587 4.4494 27.499 6.01204 27.499 7.64C27.499 9.26815 26.8585 10.831 25.716 11.9909L25.7155 11.9913L15.3555 22.4813L14.9998 22.8416L14.644 22.4813L4.28402 11.9913L4.28357 11.9909C3.14101 10.831 2.50056 9.26815 2.50056 7.64C2.50056 6.01186 3.14101 4.44905 4.28357 3.28913C4.84009 2.72254 5.5039 2.27248 6.23625 1.96523C6.96884 1.65787 7.75532 1.49957 8.54978 1.49957C9.34423 1.49957 10.1307 1.65787 10.8633 1.96523C11.5959 2.27258 12.2599 2.72283 12.8165 3.28968L12.8174 3.2906L15.0005 5.52519L17.1702 3.31258C17.1707 3.31208 17.1712 3.31159 17.1716 3.31109C17.7263 2.73743 18.3909 2.28139 19.1257 1.97022C19.8609 1.65886 20.6514 1.49894 21.4499 1.5ZM21.4499 1.5C21.4501 1.5 21.4503 1.5 21.4505 1.5L21.4498 2L21.4494 1.5C21.4495 1.5 21.4497 1.5 21.4499 1.5ZM21.4496 0.500003L21.4494 0.500003C20.5215 0.499216 19.6029 0.683681 18.7473 1.04258C17.8917 1.40148 17.1164 1.92759 16.4668 2.59007L16.4649 2.59197L16.4649 2.59197L15.3549 3.71197L14.9998 4.0703L14.6446 3.71197L13.5346 2.59197L13.5333 2.59061C12.8828 1.9292 12.1071 1.4039 11.2515 1.04533C10.3959 0.686765 9.47748 0.502097 8.54978 0.502097C7.62207 0.502097 6.70365 0.686765 5.84804 1.04533C4.99246 1.4039 4.2168 1.92918 3.56629 2.59057L21.4496 0.500003ZM21.4496 0.500003C22.3775 0.500258 23.296 0.685233 24.1516 1.04414C25.0072 1.40305 25.7828 1.92871 26.4332 2.59047C27.7594 3.94059 28.5025 5.75746 28.5025 7.65C28.5025 9.54225 27.7596 11.3589 26.4338 12.7089C26.4335 12.7091 26.4333 12.7094 26.4331 12.7096L14.9998 24.2884M21.4496 0.500003L14.9998 24.2884M14.9998 24.2884L3.56647 12.7096C3.56631 12.7095 3.56615 12.7093 3.566 12.7091C2.24002 11.3591 1.49707 9.54236 1.49707 7.65C1.49707 5.75753 2.24011 3.94071 3.56625 2.59061L14.9998 24.2884Z" fill="#BDBDBD" stroke="#252B42"/>
</svg>
