<svg width="24" height="27" viewBox="0 0 23 18" fill="none" xmlns="http://www.w3.org/2000/svg"><mask id="a" fill="#fff"><path d="M21.839 2.471a.72.72 0 00-.553-.27H6.32l.467 1.466h13.556l-1.919 8.8H7.644L4.359 1.855a.736.736 0 00-.474-.476L.938.455a.708.708 0 00-.55.053.733.733 0 00-.352.434.75.75 0 00.052.562.73.73 0 00.426.359l2.58.806 3.3 10.634-1.18.982-.093.096a1.976 1.976 0 00-.058 2.486c.196.243.445.436.727.563.282.127.59.186.898.17h11.996a.71.71 0 00.508-.215.741.741 0 000-1.037.712.712 0 00-.508-.215H6.573a.475.475 0 01-.404-.25.499.499 0 01.001-.483l1.732-1.467H19a.71.71 0 00.46-.155.735.735 0 00.259-.417l2.278-10.266a.749.749 0 00-.158-.624z"/></mask><path d="M21.839 2.471a.72.72 0 00-.553-.27H6.32l.467 1.466h13.556l-1.919 8.8H7.644L4.359 1.855a.736.736 0 00-.474-.476L.938.455a.708.708 0 00-.55.053.733.733 0 00-.352.434.75.75 0 00.052.562.73.73 0 00.426.359l2.58.806 3.3 10.634-1.18.982-.093.096a1.976 1.976 0 00-.058 2.486c.196.243.445.436.727.563.282.127.59.186.898.17h11.996a.71.71 0 00.508-.215.741.741 0 000-1.037.712.712 0 00-.508-.215H6.573a.475.475 0 01-.404-.25.499.499 0 01.001-.483l1.732-1.467H19a.71.71 0 00.46-.155.735.735 0 00.259-.417l2.278-10.266a.749.749 0 00-.158-.624z" fill="#BDBDBD" stroke="#fff" stroke-width="2" mask="url(#a)"/></svg>