<svg width="24" height="22" fill="none" xmlns="http://www.w3.org/2000/svg"><g clip-path="url(#clip0)" fill="#BDBDBD" stroke="#fff"><path d="M9.76 20.35c0 .645-.509 1.15-1.116 1.15-.608 0-1.118-.505-1.118-1.15 0-.645.51-1.15 1.118-1.15.607 0 1.117.505 1.117 1.15zm9.826 0c0 .645-.51 1.15-1.117 1.15-.608 0-1.117-.505-1.117-1.15 0-.645.51-1.15 1.117-1.15s1.117.505 1.117 1.15zm2.862-17.567l.008.01a.24.24 0 01.052.2l-2.277 10.26h0a.235.235 0 01-.083.134.21.21 0 01-.136.047h0H8.72l-.14.118-1.732 1.466-.07.06-.044.08a1 1 0 00.342 1.329c.144.09.31.14.48.146h12.128c.055 0 .11.023.152.065a.241.241 0 01.067.169.241.241 0 01-.067.168.212.212 0 01-.151.065H7.663a1.442 1.442 0 01-.667-.126l-.206.456.206-.456a1.48 1.48 0 01-.54-.417 1.477 1.477 0 01.035-1.84l.063-.064 1.16-.966.255-.214-.098-.318L4.57 2.52l-.077-.25-.25-.079-2.58-.806s0 0 0 0a.225.225 0 01-.132-.113.25.25 0 01-.017-.186.233.233 0 01.11-.14.211.211 0 01.163-.015l2.947.924h.001c.033.01.063.029.089.054a.236.236 0 01.057.095s0 0 0 0l3.284 10.61.11.352h11.552l.085-.394 1.92-8.8.132-.606H8.154L8.005 2.7h14.278c.03 0 .06.008.089.021l.22-.449-.22.45a.222.222 0 01.076.06h0z"/></g><defs><clipPath id="clip0"><path fill="#fff" transform="translate(.5)" d="M0 0h23v22H0z"/></clipPath></defs></svg>