<svg width="80" height="80" viewBox="0 0 80 80" fill="none" xmlns="http://www.w3.org/2000/svg">
<g filter="url(#filter0_d)">
<rect x="15.762" y="5" width="48.7145" height="48.7145" rx="24.3572" fill="url(#paint0_linear)"/>
<g clip-path="url(#clip0)">
<path d="M49.1585 18.7264H30.6064C30.1603 18.7264 29.7998 19.0868 29.7998 19.533V38.0851C29.7998 38.5312 30.1603 38.8917 30.6064 38.8917H49.1585C49.6047 38.8917 49.9651 38.5312 49.9651 38.0851V19.533C49.9651 19.0868 49.6047 18.7264 49.1585 18.7264ZM46.8294 24.6121H45.2187C43.9559 24.6121 43.7113 25.212 43.7113 26.0943V28.0377H46.7261L46.3328 31.0802H43.7113V38.8917H40.5681V31.0827H37.939V28.0377H40.5681V25.7943C40.5681 23.1905 42.1586 21.7713 44.4827 21.7713C45.5968 21.7713 46.5521 21.8545 46.8319 21.8923V24.6121H46.8294Z" fill="white"/>
</g>
<rect x="16.4999" y="5.73793" width="47.2386" height="47.2386" rx="23.6193" stroke="url(#paint1_linear)" stroke-width="1.47587"/>
</g>
<defs>
<filter id="filter0_d" x="0.522025" y="0.187387" width="79.1943" height="79.1943" filterUnits="userSpaceOnUse" color-interpolation-filters="sRGB">
<feFlood flood-opacity="0" result="BackgroundImageFix"/>
<feColorMatrix in="SourceAlpha" type="matrix" values="0 0 0 0 0 0 0 0 0 0 0 0 0 0 0 0 0 0 127 0"/>
<feOffset dy="10.4273"/>
<feGaussianBlur stdDeviation="7.61997"/>
<feColorMatrix type="matrix" values="0 0 0 0 0 0 0 0 0 0 0 0 0 0 0 0 0 0 0.07 0"/>
<feBlend mode="normal" in2="BackgroundImageFix" result="effect1_dropShadow"/>
<feBlend mode="normal" in="SourceGraphic" in2="effect1_dropShadow" result="shape"/>
</filter>
<linearGradient id="paint0_linear" x1="16.6083" y1="53.7145" x2="51.2152" y2="12.4266" gradientUnits="userSpaceOnUse">
<stop stop-color="#00F3B9"/>
<stop offset="1" stop-color="#2187FF"/>
</linearGradient>
<linearGradient id="paint1_linear" x1="16.6083" y1="53.7145" x2="51.2152" y2="12.4266" gradientUnits="userSpaceOnUse">
<stop stop-color="#00F3B9"/>
<stop offset="1" stop-color="#2187FF"/>
</linearGradient>
<clipPath id="clip0">
<rect width="20.221" height="20.7675" fill="white" transform="translate(29.7708 18.6357)"/>
</clipPath>
</defs>
</svg>
