<svg width="15" height="15" viewBox="0 0 15 15" fill="none" xmlns="http://www.w3.org/2000/svg">
<path d="M3.32514 9.38421L2.24489 14.0619C2.21144 14.2036 2.22149 14.352 2.27371 14.4878C2.32593 14.6237 2.41791 14.7406 2.53763 14.8234C2.65734 14.9062 2.79924 14.9509 2.94478 14.9518C3.09031 14.9526 3.23273 14.9096 3.35342 14.8282L7.30104 12.1965L11.2487 14.8282C11.3722 14.9102 11.5178 14.9524 11.666 14.9492C11.8142 14.9459 11.9578 14.8974 12.0776 14.8101C12.1974 14.7227 12.2876 14.6008 12.336 14.4607C12.3844 14.3206 12.3888 14.169 12.3485 14.0264L11.0225 9.38639L14.3111 6.42694C14.4164 6.3321 14.4916 6.20847 14.5274 6.07133C14.5632 5.9342 14.5581 5.78958 14.5125 5.65535C14.467 5.52112 14.3832 5.40318 14.2713 5.31611C14.1595 5.22904 14.0246 5.17665 13.8833 5.16544L9.75009 4.83629L7.96152 0.877063C7.90449 0.749576 7.81178 0.641319 7.69458 0.565357C7.57738 0.489395 7.44071 0.448975 7.30104 0.448975C7.16138 0.448975 7.0247 0.489395 6.90751 0.565357C6.79031 0.641319 6.6976 0.749576 6.64057 0.877063L4.85199 4.83629L0.718769 5.16471C0.5799 5.17571 0.44714 5.22649 0.336372 5.31097C0.225604 5.39545 0.141519 5.51005 0.094177 5.64106C0.0468346 5.77207 0.0382393 5.91395 0.0694195 6.04972C0.1006 6.18549 0.170235 6.30941 0.269995 6.40664L3.32514 9.38421ZM5.39357 6.24786C5.52298 6.23767 5.64726 6.19285 5.75339 6.1181C5.85952 6.04335 5.94358 5.94143 5.99677 5.82301L7.30104 2.93679L8.60532 5.82301C8.65851 5.94143 8.74257 6.04335 8.8487 6.1181C8.95483 6.19285 9.07911 6.23767 9.20852 6.24786L12.0882 6.47624L9.71674 8.61064C9.51084 8.79624 9.42892 9.08189 9.50432 9.34869L10.4127 12.5278L7.70414 10.7218C7.58526 10.642 7.44531 10.5994 7.30213 10.5994C7.15895 10.5994 7.01901 10.642 6.90012 10.7218L4.06972 12.609L4.83097 9.31316C4.85888 9.19194 4.85514 9.06558 4.82009 8.94623C4.78505 8.82688 4.71988 8.71855 4.63087 8.63166L2.42832 6.48421L5.39357 6.24786Z" fill="#F3CD03"/>
</svg>
