<svg width="15" height="15" viewBox="0 0 15 15" fill="none" xmlns="http://www.w3.org/2000/svg">
<path d="M14.9118 5.65481C14.8662 5.52059 14.7823 5.40265 14.6705 5.31555C14.5587 5.22846 14.4238 5.17602 14.2825 5.16471L10.1493 4.83629L8.36069 0.87706C8.30373 0.749541 8.21108 0.641233 8.09392 0.565207C7.97677 0.48918 7.84011 0.448685 7.70045 0.448609C7.56079 0.448532 7.42409 0.488877 7.30685 0.564775C7.18961 0.640672 7.09684 0.748879 7.03974 0.876335L5.25116 4.83629L1.11794 5.16471C0.979069 5.17571 0.846309 5.22649 0.735542 5.31097C0.624774 5.39544 0.540689 5.51004 0.493347 5.64106C0.446005 5.77207 0.437409 5.91395 0.468589 6.04972C0.49977 6.18549 0.569405 6.3094 0.669164 6.40663L3.72359 9.38421L2.64334 14.0619C2.61054 14.2035 2.62105 14.3517 2.67351 14.4872C2.72598 14.6228 2.81797 14.7394 2.93755 14.822C3.05713 14.9046 3.19878 14.9494 3.34411 14.9505C3.48945 14.9516 3.63176 14.909 3.75259 14.8282L7.70021 12.1965L11.6478 14.8282C11.7713 14.9102 11.917 14.9524 12.0652 14.9492C12.2134 14.9459 12.357 14.8974 12.4768 14.8101C12.5966 14.7227 12.6867 14.6008 12.7352 14.4607C12.7836 14.3206 12.788 14.169 12.7477 14.0264L11.4216 9.38638L14.7102 6.42694C14.9256 6.23264 15.0046 5.92958 14.9118 5.65481Z" fill="#F3CD03"/>
</svg>
