<svg width="33" height="33" fill="none" xmlns="http://www.w3.org/2000/svg"><path d="M31.199.483H1.739a1.28 1.28 0 00-1.28 1.28v29.46c0 .708.572 1.28 1.28 1.28H31.2a1.28 1.28 0 001.28-1.28V1.763A1.28 1.28 0 0031.2.484zM9.957 27.769h-4.75V12.487h4.75v15.282zM7.584 10.397a2.754 2.754 0 110-5.508 2.754 2.754 0 010 5.508zm20.16 17.372h-4.746v-7.433c0-1.773-.032-4.05-2.47-4.05-2.47 0-2.85 1.928-2.85 3.922v7.56h-4.743v-15.28h4.555v2.09h.064c.633-1.202 2.181-2.47 4.495-2.47 4.811 0 5.696 3.166 5.696 7.28v8.382z" fill="#fff"/></svg>